<svg width="16" height="16" viewBox="0 0 16 16" fill="none" xmlns="http://www.w3.org/2000/svg">
    <path d="M1 3C1 2.44772 1.44772 2 2 2H14C14.5523 2 15 2.44772 15 3V14H1V3Z"
        fill="url(#paint0_linear_4_207)" />
    <rect x="2" y="5" width="12" height="8" fill="white" />
    <path
        d="M5.42611 7.54224H6.02285L7.44954 10.8209H6.63331L6.35209 10.1281H5.07972L4.80536 10.8209H4.0097L5.42611 7.54224ZM5.7039 8.49565L5.30608 9.51423H6.10859L5.7039 8.49565ZM7.78564 7.54224H9.00313C9.16432 7.54224 9.32551 7.55595 9.48327 7.59025C9.62388 7.61769 9.75763 7.67256 9.87767 7.75144C9.99084 7.83032 10.0834 7.93321 10.1452 8.05667C10.2103 8.18356 10.2446 8.34475 10.2446 8.54024C10.2515 8.70485 10.2172 8.86947 10.152 9.02037C10.0937 9.14384 10.008 9.25015 9.89824 9.32903C9.78164 9.40791 9.65132 9.46622 9.51413 9.49365C9.35638 9.52795 9.19519 9.54509 9.034 9.54166H8.50585V10.8209H7.78221V7.54224H7.78564ZM8.50928 8.9312H8.98941C9.05115 8.9312 9.11631 8.92435 9.17804 8.91406C9.23634 8.90377 9.29121 8.88319 9.33923 8.85233C9.38724 8.82146 9.4284 8.7803 9.45583 8.73229C9.4867 8.67399 9.50385 8.6054 9.50042 8.54024C9.50385 8.46822 9.48327 8.3962 9.44211 8.33789C9.40439 8.28645 9.35295 8.24529 9.29464 8.22129C9.22948 8.19385 9.16432 8.17327 9.0923 8.16642C9.02028 8.15956 8.95169 8.15613 8.87967 8.15613H8.50928V8.9312ZM10.6493 7.54224H11.373V10.8209H10.6493V7.54224Z"
        fill="#1E2324" />
    <circle cx="2.5" cy="3.5" r="0.5" fill="white" />
    <circle cx="5.5" cy="3.5" r="0.5" fill="white" />
    <circle cx="4" cy="3.5" r="0.5" fill="white" />
    <defs>
        <linearGradient id="paint0_linear_4_207" x1="8" y1="2" x2="8" y2="14"
            gradientUnits="userSpaceOnUse">
            <stop stop-color="#1E2324" />
            <stop offset="1" stop-color="#1E2324" stop-opacity="0.7" />
        </linearGradient>
    </defs>
</svg>